<svg width="1280" height="640" viewBox="0 0 1280 640" xmlns="http://www.w3.org/2000/svg">
  <rect width="1280" height="640" fill="#0a0a12"/>
  <!-- Shield -->
  <g transform="translate(640, 260)">
    <path d="M0,-120 L100,-80 L100,40 Q100,120 0,150 Q-100,120 -100,40 L-100,-80 Z" fill="none" stroke="#22c55e" stroke-width="4"/>
    <path d="M0,-80 L60,-50 L60,30 Q60,80 0,100 Q-60,80 -60,30 L-60,-50 Z" fill="#22c55e" opacity="0.2"/>
    <!-- Lock icon -->
    <rect x="-25" y="-10" width="50" height="40" rx="4" fill="none" stroke="#22c55e" stroke-width="3"/>
    <path d="M-15,-10 L-15,-30 Q-15,-50 0,-50 Q15,-50 15,-30 L15,-10" fill="none" stroke="#22c55e" stroke-width="3"/>
    <circle cx="0" cy="15" r="6" fill="#22c55e"/>
  </g>
  <text x="640" y="480" text-anchor="middle" font-family="system-ui, sans-serif" font-size="48" font-weight="700" fill="#e6edf3">Security</text>
  <text x="640" y="530" text-anchor="middle" font-family="system-ui, sans-serif" font-size="20" fill="#8b949e">Defense • Authentication • Hardening</text>
</svg>
